<svg width="22" height="22" viewBox="0 0 22 22" fill="none" xmlns="http://www.w3.org/2000/svg">
<path d="M11 0L0 11.6471H3.3V22H18.7V11.6471H22L11 0ZM11 6.08235C13.31 6.08235 15.18 8.28235 15.18 11C15.18 14.8824 11 19.4118 11 19.4118C11 19.4118 6.82 14.8824 6.82 11C6.82 8.28235 8.69 6.08235 11 6.08235ZM11 9.05882C10.5624 9.05882 10.1427 9.26334 9.83327 9.62738C9.52384 9.99142 9.35 10.4852 9.35 11C9.35 11.5148 9.52384 12.0086 9.83327 12.3726C10.1427 12.7367 10.5624 12.9412 11 12.9412C11.4376 12.9412 11.8573 12.7367 12.1667 12.3726C12.4762 12.0086 12.65 11.5148 12.65 11C12.65 10.4852 12.4762 9.99142 12.1667 9.62738C11.8573 9.26334 11.4376 9.05882 11 9.05882Z" fill="#1CAE81"/>
</svg>
